PathFileType	4	(X/Y/Z)	D:\TRACE\v60_Jaco2_6-2-23\JustBodyDRS_Motion1_2-v60.trc
DataRate	CameraRate	NumFrames	NumMarkers	Units	OrigDataRate	OrigDataStartFrame	OrigNumFrames
100.00	100.00	      41	9	mm	100.00	3478	      6954
Frame#	Time	front left toe			Front right toe			aft left toe			aft right toe			Arm			FL body			FR body			AL Body			AR Body			
		X1	Y1	Z1	X2	Y2	Z2	X3	Y3	Z3	X4	Y4	Z4	X5	Y5	Z5	X6	Y6	Z6	X7	Y7	Z7	X8	Y8	Z8	X9	Y9	Z9	

3478	34.770	-154.48950	17.29761	-153.48210	209.67290	44.83683	-157.42856	-147.63042	54.92388	465.96283	230.28355	22.54450	465.89258	-45.08682	1216.18921	-283.89664	-32.21766	583.69788	-294.99088	128.08488	580.77185	-296.22058	-23.24070	558.29791	651.18463	132.90648	549.71814	649.97540	
3479	34.780	-153.87932	17.09167	-153.54637	210.77988	55.36357	-158.43443	-148.12784	66.86746	465.22162	230.52966	22.50463	465.82126	-43.81268	1215.66235	-283.94800	-31.00067	583.09546	-294.46060	129.22240	580.14386	-296.27100	-21.64387	558.35486	651.49872	134.40367	549.57043	650.03424	
3480	34.790	-153.49934	16.97351	-153.52197	213.56282	66.31422	-159.54959	-149.70459	79.39706	464.71759	230.69662	22.48110	465.76987	-42.76366	1214.94775	-284.85358	-30.65403	582.99243	-294.61063	130.14780	579.52679	-296.26935	-19.78930	558.48370	651.43774	136.70403	549.37488	650.15405	
3481	34.800	-153.22299	16.57818	-153.44678	216.74678	77.56734	-160.25893	-149.34169	91.26725	464.82147	231.56810	22.61541	465.73767	-41.67605	1214.18420	-284.93179	-29.35101	582.17303	-294.43878	130.39523	578.46301	-296.14526	-17.88950	558.43719	651.57208	138.44318	549.00665	650.06842	
3482	34.810	-153.03238	16.30301	-153.47241	219.00754	88.09870	-160.83365	-148.24641	103.02303	465.15091	232.22482	22.66065	465.80057	-40.35220	1213.30359	-285.45569	-28.93831	581.47247	-294.00180	131.40721	577.55518	-296.38974	-16.25260	558.55774	651.68457	140.51501	549.09027	649.96667	
3483	34.820	-152.85410	16.09795	-153.51352	221.41948	98.87369	-161.00789	-146.08984	114.21475	465.76355	232.48003	22.60332	465.64328	-38.77191	1212.41223	-285.64679	-27.42150	580.48926	-293.74530	132.41522	576.54413	-296.43478	-14.33517	559.00342	651.73053	142.19838	549.16888	649.96082	
3484	34.830	-152.71730	16.01397	-153.48158	223.45247	109.36922	-161.33672	-142.80702	124.36280	466.32361	232.70682	22.59642	465.46655	-37.28418	1211.84497	-286.41666	-27.54417	579.80774	-294.23544	132.97009	575.48029	-296.70731	-12.68334	559.52228	651.68762	143.84599	549.55170	649.78394	
3485	34.840	-152.44551	16.02777	-153.40305	225.31219	119.00327	-161.28331	-138.66302	133.55827	467.00793	232.95718	22.75640	465.40604	-35.59319	1211.25171	-286.98111	-26.32175	578.99860	-294.09531	133.33676	574.70581	-296.65289	-10.65245	560.12262	652.09576	145.71140	550.34509	649.74347	
3486	34.850	-152.43138	16.03638	-153.36256	228.00887	127.72078	-161.63338	-134.02350	141.39569	467.21658	233.01605	22.84425	465.25558	-34.28859	1210.91626	-288.34399	-26.09971	578.58881	-293.92242	134.67178	573.89478	-296.87451	-8.68478	561.02014	652.21576	147.56369	551.07092	649.62445	
3487	34.860	-152.41782	15.90979	-153.37021	230.84453	134.97353	-162.10818	-130.27684	148.20804	467.73584	233.05038	22.96504	465.14926	-33.32242	1209.54285	-289.66214	-25.17982	577.88770	-293.92545	134.76941	573.09473	-296.87088	-7.18620	561.69702	651.85217	149.29634	551.58038	649.39386	
3488	34.870	-152.27361	15.77156	-153.24251	233.60081	140.76840	-163.03101	-128.17834	154.60730	466.89691	233.25996	23.20157	464.94492	-31.83451	1208.58948	-291.05951	-23.98481	577.37201	-293.62451	135.31335	572.45483	-296.98804	-5.17023	562.49750	652.14722	151.18201	552.26874	649.14410	
3489	34.880	-152.13089	15.82556	-153.20615	236.38287	142.93173	-163.59894	-125.90259	158.03439	466.77881	233.28470	23.39652	464.79245	-31.25405	1208.32861	-291.87711	-23.97899	577.25043	-294.22800	136.55212	572.03796	-297.61508	-3.29872	563.58997	651.82196	153.16806	552.91699	649.00714	
3490	34.890	-152.13989	16.01913	-153.21727	239.25435	142.61143	-163.50684	-124.35665	158.75716	467.14008	233.41399	23.53168	464.65103	-29.49346	1208.06995	-292.99521	-23.50993	577.14227	-294.27628	137.13921	571.70282	-297.96640	-0.73499	564.33374	651.99506	155.41618	553.86194	648.52905	
3491	34.900	-152.06596	16.05063	-153.32492	241.82169	139.22537	-164.05087	-121.87775	157.48108	467.61240	233.52710	23.63088	464.52997	-28.95910	1208.06946	-293.49072	-22.86404	576.81519	-294.51065	137.38103	571.34760	-298.15042	1.24996	565.16589	651.77991	156.86386	554.33270	648.11646	
3492	34.910	-151.84586	15.66232	-153.20470	244.12453	135.04462	-164.39810	-117.21854	153.09877	468.89142	233.61316	23.75379	464.55197	-27.79513	1208.23083	-294.27277	-21.93930	576.29431	-294.85559	138.20703	570.89130	-298.78622	3.09577	565.77631	651.43744	158.96927	554.89294	647.68475	
3493	34.920	-151.80495	15.50728	-153.13133	246.31395	129.89322	-164.95996	-114.27199	149.18759	469.64120	233.62526	23.80818	464.42065	-26.82456	1208.12463	-294.92020	-21.35766	575.92407	-294.98633	138.70941	570.31616	-299.10455	5.07358	566.32196	650.96106	161.09557	555.50446	647.04474	
3494	34.930	-151.72995	15.45952	-153.13277	248.69119	125.20683	-166.47121	-110.58949	144.19939	470.17764	233.77318	23.93123	464.24448	-25.43923	1207.82556	-295.68723	-20.67068	575.66003	-295.29874	139.70639	570.14667	-300.10776	6.51416	566.96326	650.15912	162.97560	555.81458	646.43018	
3495	34.940	-151.82849	15.63139	-153.22989	251.13275	120.25101	-168.54144	-106.52705	138.36227	470.26395	233.90361	24.15388	464.16229	-24.62788	1207.37366	-296.47583	-19.84947	575.55731	-295.89230	140.39072	569.90045	-300.76767	8.84980	567.30969	649.70050	165.38173	556.31647	645.75983	
3496	34.950	-151.85252	15.71390	-153.31490	253.78006	114.34692	-170.90776	-102.25065	131.82440	469.69040	234.29579	24.27487	464.03378	-23.31280	1206.93945	-297.84036	-19.54392	575.53058	-296.37436	140.70219	569.45685	-301.27667	10.84045	567.79401	649.43048	167.36490	556.62250	644.97900	
3497	34.960	-151.80994	15.61409	-153.35423	257.03058	108.04457	-173.12756	-96.81558	123.17818	469.02002	234.82962	24.33763	463.76239	-22.78561	1206.47913	-298.92557	-18.93587	574.87091	-296.97736	141.37181	568.89587	-301.88821	12.99100	567.88495	649.12384	169.44835	556.97174	644.15381	
3498	34.970	-151.84888	15.53783	-153.34312	259.96494	100.76575	-175.05374	-92.01187	113.92699	467.99869	234.81332	24.35579	463.57339	-21.69926	1206.23755	-300.18335	-18.11239	574.02539	-297.57861	142.35799	568.46588	-303.28598	14.85980	568.32214	648.11969	171.32800	557.25421	643.49762	
3499	34.980	-151.85013	15.34230	-153.37741	263.21637	93.23293	-176.81355	-87.91528	105.42887	466.71530	234.77211	24.29818	463.31735	-21.15714	1205.93518	-301.49457	-16.20645	573.31848	-297.70139	143.07535	568.14990	-304.01053	16.92433	568.38263	647.49310	173.28018	557.54669	642.45972	
3500	34.990	-151.96815	15.38888	-153.43335	266.57233	85.53680	-178.78854	-83.67174	97.17739	464.44635	234.66226	24.33125	463.10757	-21.00922	1205.61182	-302.34775	-15.88900	573.15472	-298.41965	143.87506	567.95697	-304.90323	19.00478	568.79858	646.69818	175.10739	557.58691	641.45251	
3501	35.000	-152.17694	15.53891	-153.59457	270.43317	77.52409	-180.81108	-79.70147	89.09608	462.75085	234.51569	24.40649	463.00208	-21.05137	1205.06372	-303.38870	-14.89584	573.00098	-299.27423	144.62836	567.70795	-306.26575	21.13532	569.00574	645.77747	177.73849	558.16626	640.31671	
3502	35.010	-152.36490	15.60307	-153.75305	272.53799	69.93065	-183.49205	-75.71426	80.30299	460.96375	234.29324	24.43062	462.85376	-20.51246	1204.73608	-304.65768	-14.73482	572.81915	-300.56735	145.28268	567.53241	-306.80084	23.61371	568.98901	644.93018	179.87910	558.30249	639.08191	
3503	35.020	-152.47050	15.54684	-153.80254	275.29474	62.46067	-185.95236	-71.58892	71.68942	458.66632	234.12109	24.47611	462.77252	-20.48112	1204.38672	-305.76300	-13.39982	572.33844	-301.66080	145.76901	567.52106	-308.27988	25.73927	569.07800	643.43750	181.89441	558.35901	637.97321	
3504	35.030	-152.48625	15.44488	-153.74847	277.96591	54.92194	-188.78444	-68.06619	63.05566	456.89502	234.12030	24.58837	462.68909	-20.50169	1204.38220	-307.11108	-12.67995	572.25031	-302.83249	146.97682	567.36066	-309.53967	28.49610	568.88483	642.87543	184.50148	558.70856	636.48456	
3505	35.040	-152.57968	15.42533	-153.84949	280.60474	47.79264	-191.36259	-64.85339	54.83939	455.17776	233.96445	24.63951	462.56592	-20.59096	1204.14905	-308.24380	-12.31814	572.10895	-303.96469	147.93684	567.43359	-310.89764	30.28853	569.02429	641.29059	186.61876	558.78235	634.81757	
3506	35.050	-152.65321	15.49040	-153.91486	283.29822	41.02162	-193.70093	-61.51099	47.55762	452.83444	233.76512	24.67093	462.33823	-21.22345	1203.96838	-309.58533	-11.16847	571.78680	-305.29242	148.70253	567.65131	-312.57938	32.86366	568.77710	639.88257	189.23868	559.11725	633.17493	
3507	35.060	-152.68158	15.49787	-153.95245	285.70020	34.90026	-196.26819	-58.29423	40.97348	450.18832	233.55939	24.84406	462.12708	-21.89808	1203.66211	-310.59552	-9.87955	571.56854	-306.79559	149.75481	567.74225	-314.41599	35.08796	568.68475	638.30676	190.85359	558.94940	631.42871	
3508	35.070	-152.67776	15.52839	-153.93681	288.15793	28.62669	-199.13696	-55.50050	34.50256	447.25778	233.34120	24.83269	461.91287	-22.25263	1203.23901	-312.30923	-8.31476	571.06006	-308.00165	150.70476	567.91864	-316.19388	37.74353	568.56744	636.54376	194.40771	559.38678	629.40460	
3509	35.080	-152.77412	15.56762	-153.94359	290.44754	21.92789	-202.40869	-53.58149	28.03599	443.95105	233.11133	24.77176	461.56403	-22.96664	1202.98730	-313.52039	-8.11252	571.26917	-309.92819	151.66626	567.98486	-318.21628	40.55501	567.85089	635.22443	196.59508	559.36713	627.43182	
3510	35.090	-152.82991	15.56595	-153.95328	292.06458	15.43746	-205.92578	-53.59793	26.83849	441.85617	233.01810	24.85100	461.48401	-23.46171	1202.77100	-315.41202	-6.79050	570.79797	-311.63651	152.76547	568.27698	-320.78159	43.19501	567.88611	633.19843	199.16858	559.34418	625.11847	
3511	35.100	-152.94832	15.63884	-153.82317	292.39630	13.69532	-208.56439	-55.33861	27.23337	442.25082	232.63544	24.92610	461.24469	-22.90858	1203.10596	-317.25375	-6.83225	570.62341	-313.56509	153.16624	567.57355	-322.53217	45.85626	569.16638	630.69458	202.50206	560.48523	622.72864	
3512	35.110	-152.98373	15.59690	-154.04907	292.11551	11.38372	-208.47198	-55.08507	28.54105	443.11719	232.61954	25.13728	461.07031	-23.34145	1202.85059	-319.63669	-5.83380	570.63531	-315.30508	153.73737	568.12384	-325.29486	48.97571	570.21954	628.92352	205.35471	561.85712	620.56024	
3513	35.120	-153.06767	16.49187	-154.96159	291.83295	11.30993	-208.46474	-54.94973	28.69008	442.97366	232.74728	26.11293	459.72202	-23.30889	1203.09338	-322.76096	-5.93659	571.32397	-317.36163	154.27916	569.06708	-327.25690	51.30093	571.28033	626.86865	207.95370	563.23022	618.10345	
3514	35.130	-148.27278	20.20596	-155.37021	291.63586	9.97441	-209.46045	-54.65709	28.52497	441.70172	232.41209	29.28986	460.67410	-22.90673	1204.00500	-326.23004	-5.86943	572.05762	-319.07413	153.88553	569.91132	-329.30798	54.51901	572.04907	625.68677	210.04698	563.65002	615.97375	
3515	35.140	-141.90213	23.23157	-152.36784	291.21231	9.78266	-209.57172	-54.78793	29.03174	441.91406	230.84312	32.54725	463.39145	-22.61453	1204.66150	-329.08344	-5.74074	573.05072	-320.55469	154.34262	570.51794	-330.94757	56.48921	573.22583	623.57117	213.17886	564.57019	613.86566	
3516	35.150	-136.47003	30.04757	-151.12794	290.79309	9.59439	-209.85995	-55.21404	29.03403	441.46802	229.88173	41.17559	462.90265	-22.66355	1204.50525	-330.70255	-5.05629	573.26208	-321.89529	154.92520	570.86200	-332.92474	58.58044	574.04852	622.03107	214.89493	565.53851	612.01544	
3517	35.160	-134.81934	38.84843	-151.90121	290.33408	9.34206	-209.86755	-55.46860	29.31000	441.60443	231.14784	51.45514	461.49771	-21.93269	1204.68994	-331.29535	-4.90772	572.85663	-323.39786	155.30266	570.83398	-334.42560	60.33086	574.92975	620.54584	216.67265	566.80975	610.82495	
3518	35.170	-134.40466	49.84790	-153.65495	290.11624	9.19957	-209.84267	-55.84423	29.63145	441.63046	234.36382	63.47582	458.10385	-21.88138	1204.86792	-332.30292	-4.21010	572.21216	-324.69540	155.95496	570.58984	-335.78979	61.23707	575.81921	619.12842	217.37045	567.63306	609.36627	
